<svg width="69" height="69" viewBox="0 0 69 69" fill="none" xmlns="http://www.w3.org/2000/svg">
									<rect x="1.18164" y="0.672852" width="66.9551" height="66.9551" rx="6.5" fill="#A7C5E7"
										fill-opacity="0.03" />
									<rect x="1.18164" y="0.672852" width="66.9551" height="66.9551" rx="6.5"
										fill="url(#paint0_linear_121_654)" />
									<rect x="1.18164" y="0.672852" width="66.9551" height="66.9551" rx="6.5"
										fill="url(#paint1_linear_121_654)" fill-opacity="0.2" />
									<rect x="1.18164" y="0.672852" width="66.9551" height="66.9551" rx="6.5" stroke="#A7C5E7"
										stroke-opacity="0.1" />
									<rect x="1.18164" y="0.672852" width="66.9551" height="66.9551" rx="6.5"
										stroke="url(#paint2_linear_121_654)" />
									<path
										d="M46.6157 43.2373H45.6591V24.1069C45.6591 23.8532 45.5584 23.6099 45.379 23.4306C45.1996 23.2512 44.9563 23.1504 44.7026 23.1504H38.007C37.7533 23.1504 37.51 23.2512 37.3306 23.4306C37.1512 23.6099 37.0504 23.8532 37.0504 24.1069V28.8895H31.3113C31.0576 28.8895 30.8143 28.9903 30.6349 29.1697C30.4556 29.3491 30.3548 29.5924 30.3548 29.846V34.6287H24.6157C24.362 34.6287 24.1187 34.7294 23.9393 34.9088C23.7599 35.0882 23.6591 35.3315 23.6591 35.5852V43.2373H22.7026C22.4489 43.2373 22.2056 43.3381 22.0263 43.5175C21.8469 43.6969 21.7461 43.9402 21.7461 44.1939C21.7461 44.4476 21.8469 44.6908 22.0263 44.8702C22.2056 45.0496 22.4489 45.1504 22.7026 45.1504H46.6157C46.8693 45.1504 47.1126 45.0496 47.292 44.8702C47.4714 44.6908 47.5722 44.4476 47.5722 44.1939C47.5722 43.9402 47.4714 43.6969 47.292 43.5175C47.1126 43.3381 46.8693 43.2373 46.6157 43.2373ZM32.2678 30.8026H37.0504V43.2373H32.2678V30.8026ZM25.5722 36.5417H30.3548V43.2373H25.5722V36.5417Z"
										fill="#4FD298" />
									<defs>
										<linearGradient id="paint0_linear_121_654" x1="7.21121" y1="-99.111" x2="88.1013" y2="0.349702"
											gradientUnits="userSpaceOnUse">
											<stop offset="0.0001" stop-color="#84FFA4" />
											<stop offset="0.208333" stop-color="#4FD298" />
											<stop offset="0.870799" stop-color="#4FD298" stop-opacity="0" />
										</linearGradient>
										<linearGradient id="paint1_linear_121_654" x1="62.3135" y1="80.3715" x2="32.2262" y2="64.9318"
											gradientUnits="userSpaceOnUse">
											<stop stop-color="#4FD298" />
											<stop offset="0.229167" stop-color="#4FD298" />
											<stop offset="1" stop-color="#4FD298" stop-opacity="0" />
										</linearGradient>
										<linearGradient id="paint2_linear_121_654" x1="13.6253" y1="-233.551" x2="173.488" y2="-59.0671"
											gradientUnits="userSpaceOnUse">
											<stop stop-color="#4FD298" />
											<stop offset="1" stop-color="#4FD298" stop-opacity="0" />
										</linearGradient>
									</defs>
								</svg>