<svg width="69" height="69" viewBox="0 0 69 69" fill="none" xmlns="http://www.w3.org/2000/svg">
									<rect x="1.18164" y="0.672852" width="66.9551" height="66.9551" rx="6.5" fill="#A7C5E7"
										fill-opacity="0.03" />
									<rect x="1.18164" y="0.672852" width="66.9551" height="66.9551" rx="6.5"
										fill="url(#paint0_linear_121_662)" />
									<rect x="1.18164" y="0.672852" width="66.9551" height="66.9551" rx="6.5"
										fill="url(#paint1_linear_121_662)" fill-opacity="0.2" />
									<rect x="1.18164" y="0.672852" width="66.9551" height="66.9551" rx="6.5" stroke="#A7C5E7"
										stroke-opacity="0.1" />
									<rect x="1.18164" y="0.672852" width="66.9551" height="66.9551" rx="6.5"
										stroke="url(#paint2_linear_121_662)" />
									<path
										d="M47.7445 28.5031C47.474 28.2773 47.1454 28.1321 46.7964 28.084C46.4473 28.036 46.0917 28.087 45.7703 28.2313L39.7923 30.8882L36.3117 24.6231C36.148 24.3283 35.9084 24.0826 35.6178 23.9116C35.3271 23.7406 34.9961 23.6504 34.6588 23.6504C34.3216 23.6504 33.9906 23.7406 33.6999 23.9116C33.4093 24.0826 33.1697 24.3283 33.006 24.6231L29.5252 30.8881L23.5464 28.2308C23.2247 28.0879 22.8695 28.0376 22.5208 28.0856C22.172 28.1336 21.8436 28.278 21.5725 28.5025C21.3014 28.7271 21.0984 29.0228 20.9862 29.3565C20.8741 29.6901 20.8573 30.0485 20.9378 30.3912L23.9449 43.1938C24.0021 43.4417 24.1092 43.6753 24.2598 43.8803C24.4103 44.0854 24.601 44.2576 24.8204 44.3864C25.0408 44.5162 25.2851 44.6004 25.5388 44.6339C25.7924 44.6675 26.0502 44.6497 26.2968 44.5816C31.7673 43.0714 37.5446 43.0708 43.0154 44.58C43.2619 44.648 43.5195 44.6657 43.773 44.6322C44.0265 44.5987 44.2707 44.5145 44.4911 44.3848C44.7103 44.2561 44.901 44.084 45.0515 43.8791C45.2021 43.6742 45.3093 43.4408 45.3666 43.1931L48.3789 30.3922C48.4608 30.0495 48.4448 29.6907 48.3326 29.3567C48.2204 29.0226 48.0166 28.7269 47.7445 28.5031ZM39.3808 39.0187C39.368 39.1422 39.3309 39.262 39.2717 39.3712C39.2125 39.4804 39.1323 39.5768 39.0358 39.6549C38.9393 39.7331 38.8283 39.7914 38.7091 39.8266C38.59 39.8618 38.4651 39.8732 38.3416 39.86C35.8932 39.6029 33.4245 39.6029 30.976 39.86C30.7271 39.8853 30.4784 39.8109 30.2842 39.6532C30.09 39.4954 29.9663 39.2671 29.9401 39.0183C29.914 38.7695 29.9875 38.5205 30.1446 38.3258C30.3017 38.1311 30.5295 38.0066 30.7782 37.9795C33.3582 37.7086 35.9595 37.7086 38.5395 37.9795C38.6629 37.9925 38.7826 38.0297 38.8918 38.0889C39.0009 38.1482 39.0972 38.2283 39.1754 38.3248C39.2535 38.4213 39.3118 38.5323 39.3471 38.6513C39.3823 38.7704 39.3938 38.8952 39.3808 39.0187Z"
										fill="#4FD298" />
									<defs>
										<linearGradient id="paint0_linear_121_662" x1="7.21121" y1="-99.111" x2="88.1013" y2="0.349702"
											gradientUnits="userSpaceOnUse">
											<stop offset="0.0001" stop-color="#84FFA4" />
											<stop offset="0.208333" stop-color="#4FD298" />
											<stop offset="0.870799" stop-color="#4FD298" stop-opacity="0" />
										</linearGradient>
										<linearGradient id="paint1_linear_121_662" x1="62.3135" y1="80.3715" x2="32.2262" y2="64.9318"
											gradientUnits="userSpaceOnUse">
											<stop stop-color="#4FD298" />
											<stop offset="0.229167" stop-color="#4FD298" />
											<stop offset="1" stop-color="#4FD298" stop-opacity="0" />
										</linearGradient>
										<linearGradient id="paint2_linear_121_662" x1="13.6253" y1="-233.551" x2="173.488" y2="-59.0671"
											gradientUnits="userSpaceOnUse">
											<stop stop-color="#4FD298" />
											<stop offset="1" stop-color="#4FD298" stop-opacity="0" />
										</linearGradient>
									</defs>
								</svg>