<svg width="69" height="69" viewBox="0 0 69 69" fill="none" xmlns="http://www.w3.org/2000/svg">
									<rect x="1.18164" y="0.672852" width="66.9551" height="66.9551" rx="6.5" fill="#A7C5E7"
										fill-opacity="0.03" />
									<rect x="1.18164" y="0.672852" width="66.9551" height="66.9551" rx="6.5"
										fill="url(#paint0_linear_121_670)" />
									<rect x="1.18164" y="0.672852" width="66.9551" height="66.9551" rx="6.5"
										fill="url(#paint1_linear_121_670)" fill-opacity="0.2" />
									<rect x="1.18164" y="0.672852" width="66.9551" height="66.9551" rx="6.5" stroke="#A7C5E7"
										stroke-opacity="0.1" />
									<rect x="1.18164" y="0.672852" width="66.9551" height="66.9551" rx="6.5"
										stroke="url(#paint2_linear_121_670)" />
									<path
										d="M40.9269 43.0209C41.5949 42.7305 42.2396 42.3893 42.8555 42.0003V46.6861C42.8555 46.9418 42.7539 47.1871 42.5731 47.368C42.3922 47.5488 42.147 47.6504 41.8912 47.6504C41.6355 47.6504 41.3902 47.5488 41.2094 47.368C41.0285 47.1871 40.9269 46.9418 40.9269 46.6861V43.0209ZM33.8082 28.8752C33.7487 28.9869 33.7116 29.1093 33.6994 29.2353C33.6871 29.3613 33.6997 29.4885 33.7366 29.6097C33.7734 29.7308 33.8338 29.8435 33.9142 29.9413C33.9947 30.0392 34.0936 30.1202 34.2053 30.1798L39.8422 33.1861L41.8912 32.0933L35.1128 28.4781C35.0011 28.4185 34.8787 28.3815 34.7527 28.3692C34.6267 28.3569 34.4994 28.3695 34.3783 28.4064C34.2571 28.4432 34.1444 28.5036 34.0466 28.5841C33.9488 28.6645 33.8678 28.7634 33.8082 28.8752ZM49.5771 28.4781L35.1128 20.7638C34.9732 20.6894 34.8173 20.6504 34.6591 20.6504C34.5008 20.6504 34.3449 20.6894 34.2053 20.7638L19.741 28.4781C19.5868 28.5604 19.4578 28.683 19.3679 28.8328C19.278 28.9827 19.2305 29.1542 19.2305 29.3289C19.2305 29.5037 19.278 29.6752 19.3679 29.8251C19.4578 29.9749 19.5868 30.0975 19.741 30.1798L22.6055 31.7075V37.7007C22.606 38.1175 22.741 38.5231 22.9905 38.857C23.9457 40.1281 27.6101 44.2754 34.6591 44.2754C36.8132 44.2951 38.9478 43.8659 40.9269 43.0151V33.7646L39.8422 33.1861L34.6591 35.9504L24.0322 30.2827L24.0253 30.279L22.2439 29.3289L34.6591 22.7075L47.0742 29.3289L45.2928 30.279L45.2859 30.2827L41.8912 32.0933L42.345 32.3353C42.4983 32.4186 42.6265 32.5414 42.7163 32.691C42.8061 32.8407 42.8542 33.0116 42.8555 33.1861V41.9932C44.1889 41.1611 45.3644 40.0993 46.3275 38.8571C46.5771 38.5231 46.7121 38.1176 46.7126 37.7007V31.7075L49.5771 30.1797C49.7313 30.0975 49.8603 29.9749 49.9502 29.825C50.0401 29.6752 50.0876 29.5037 50.0876 29.3289C50.0876 29.1542 50.0401 28.9827 49.9502 28.8328C49.8603 28.683 49.7313 28.5604 49.5771 28.4781V28.4781Z"
										fill="#4FD298" />
									<defs>
										<linearGradient id="paint0_linear_121_670" x1="7.21121" y1="-99.111" x2="88.1013" y2="0.349702"
											gradientUnits="userSpaceOnUse">
											<stop offset="0.0001" stop-color="#84FFA4" />
											<stop offset="0.208333" stop-color="#4FD298" />
											<stop offset="0.870799" stop-color="#4FD298" stop-opacity="0" />
										</linearGradient>
										<linearGradient id="paint1_linear_121_670" x1="62.3135" y1="80.3715" x2="32.2262" y2="64.9318"
											gradientUnits="userSpaceOnUse">
											<stop stop-color="#4FD298" />
											<stop offset="0.229167" stop-color="#4FD298" />
											<stop offset="1" stop-color="#4FD298" stop-opacity="0" />
										</linearGradient>
										<linearGradient id="paint2_linear_121_670" x1="13.6253" y1="-233.551" x2="173.488" y2="-59.0671"
											gradientUnits="userSpaceOnUse">
											<stop stop-color="#4FD298" />
											<stop offset="1" stop-color="#4FD298" stop-opacity="0" />
										</linearGradient>
									</defs>
								</svg>