<svg width="14" height="13" viewBox="0 0 14 13" fill="none" xmlns="http://www.w3.org/2000/svg">
<path d="M13.8291 7.13009L8.57913 12.3801C8.49754 12.4617 8.3936 12.5172 8.28045 12.5397C8.1673 12.5622 8.05002 12.5506 7.94343 12.5065C7.83685 12.4623 7.74575 12.3876 7.68165 12.2916C7.61755 12.1957 7.58334 12.083 7.58333 11.9676V7.30092H0.583333C0.428623 7.30092 0.280251 7.23946 0.170854 7.13007C0.0614582 7.02067 0 6.8723 0 6.71759C0 6.56288 0.0614582 6.41451 0.170854 6.30511C0.280251 6.19571 0.428623 6.13425 0.583333 6.13425H7.58333V1.46759C7.58334 1.35222 7.61755 1.23945 7.68165 1.14353C7.74575 1.0476 7.83685 0.972841 7.94343 0.928689C8.05002 0.884537 8.1673 0.87298 8.28045 0.895478C8.3936 0.917976 8.49754 0.973519 8.57913 1.05509L13.8291 6.30508C13.8833 6.35925 13.9263 6.42356 13.9556 6.49434C13.9849 6.56512 14 6.64098 14 6.71759C14 6.7942 13.9849 6.87006 13.9556 6.94084C13.9263 7.01161 13.8833 7.07592 13.8291 7.13009Z" fill="#192B3F"/>
</svg>
