<svg width="14" height="8" viewBox="0 0 14 8" fill="none" xmlns="http://www.w3.org/2000/svg">
<path d="M13.33 1.0386C13.2853 0.930628 13.2096 0.838342 13.1124 0.773413C13.0152 0.708484 12.901 0.673828 12.7841 0.673828H0.965911C0.849039 0.673828 0.734791 0.708484 0.637616 0.773415C0.54044 0.838346 0.464702 0.930636 0.419978 1.03861C0.375254 1.14659 0.363554 1.2654 0.386357 1.38003C0.409159 1.49465 0.465441 1.59994 0.548084 1.68258L6.45717 7.59165C6.51204 7.64653 6.57718 7.69005 6.64887 7.71975C6.72056 7.74945 6.7974 7.76473 6.875 7.76473C6.9526 7.76473 7.02944 7.74945 7.10113 7.71975C7.17282 7.69005 7.23796 7.64653 7.29283 7.59165L13.2019 1.68258C13.2846 1.59994 13.3408 1.49465 13.3636 1.38002C13.3864 1.2654 13.3747 1.14658 13.33 1.0386Z" fill="#A7C5E7"/>
</svg>
