<svg width="12" height="10" viewBox="0 0 12 10" fill="none" xmlns="http://www.w3.org/2000/svg">
<path d="M11.3657 5.32411L7.24075 9.44911C7.17664 9.5132 7.09497 9.55684 7.00607 9.57452C6.91716 9.59219 6.82501 9.58311 6.74127 9.54842C6.65752 9.51373 6.58595 9.45499 6.53558 9.37962C6.48522 9.30425 6.45834 9.21564 6.45833 9.125V5.45834H0.958333C0.836776 5.45834 0.720197 5.41005 0.634243 5.32409C0.548289 5.23814 0.5 5.12156 0.5 5C0.5 4.87844 0.548289 4.76187 0.634243 4.67591C0.720197 4.58996 0.836776 4.54167 0.958333 4.54167H6.45833V0.875005C6.45834 0.78436 6.48522 0.695751 6.53558 0.620384C6.58594 0.545016 6.65752 0.486273 6.74127 0.451582C6.82501 0.416891 6.91716 0.40781 7.00607 0.425487C7.09497 0.443164 7.17664 0.486806 7.24075 0.550893L11.3657 4.67589C11.4083 4.71845 11.4421 4.76898 11.4651 4.82459C11.4881 4.8802 11.5 4.93981 11.5 5C11.5 5.0602 11.4881 5.1198 11.4651 5.17541C11.4421 5.23102 11.4083 5.28155 11.3657 5.32411Z" fill="white"/>
</svg>
