<svg width="15" height="12" viewBox="0 0 15 12" fill="none" xmlns="http://www.w3.org/2000/svg">
<path d="M14.3291 6.27029L9.07913 11.5203C8.99754 11.6019 8.8936 11.6574 8.78045 11.6799C8.6673 11.7024 8.55002 11.6908 8.44343 11.6467C8.33685 11.6025 8.24575 11.5278 8.18165 11.4318C8.11755 11.3359 8.08334 11.2231 8.08333 11.1078V6.44112H1.08333C0.928623 6.44112 0.780251 6.37966 0.670854 6.27027C0.561458 6.16087 0.5 6.0125 0.5 5.85779C0.5 5.70308 0.561458 5.5547 0.670854 5.44531C0.780251 5.33591 0.928623 5.27445 1.08333 5.27445H8.08333V0.607789C8.08334 0.492422 8.11755 0.379648 8.18165 0.283725C8.24575 0.187803 8.33685 0.113039 8.44343 0.0688869C8.55002 0.0247349 8.6673 0.0131774 8.78045 0.0356755C8.8936 0.0581735 8.99754 0.113717 9.07913 0.195283L14.3291 5.44528C14.3833 5.49945 14.4263 5.56376 14.4556 5.63454C14.4849 5.70532 14.5 5.78118 14.5 5.85779C14.5 5.9344 14.4849 6.01026 14.4556 6.08103C14.4263 6.15181 14.3833 6.21612 14.3291 6.27029Z" fill="#192B3F"/>
</svg>
