<svg width="96" height="97" viewBox="0 0 96 97" fill="none" xmlns="http://www.w3.org/2000/svg">
<path d="M53.6509 45.0132C51.8924 45.0132 50.5041 46.5249 50.5041 48.4069C50.5041 50.2888 51.9233 51.8005 53.6509 51.8005C55.4095 51.8005 56.7978 50.2888 56.7978 48.4069C56.7978 46.5249 55.3786 45.0132 53.6509 45.0132ZM42.3902 45.0132C40.6316 45.0132 39.2433 46.5249 39.2433 48.4069C39.2433 50.2888 40.6625 51.8005 42.3902 51.8005C44.1487 51.8005 45.537 50.2888 45.537 48.4069C45.5679 46.5249 44.1487 45.0132 42.3902 45.0132Z" fill="#4FD298"/>
<path d="M68.6449 19.3442H27.304C23.8178 19.3442 20.9795 22.1826 20.9795 25.6688V67.0097C20.9795 70.4959 23.8178 73.3342 27.304 73.3342H62.2895L60.6544 67.6884L64.6034 71.3289L68.3364 74.7534L75.0003 80.5226V25.6688C74.9695 22.1826 72.1311 19.3442 68.6449 19.3442ZM56.7363 59.2968C56.7363 59.2968 55.6256 57.9702 54.7001 56.8287C58.7416 55.6872 60.2842 53.1882 60.2842 53.1882C59.0193 54.0212 57.8161 54.6074 56.7363 55.0085C55.1937 55.6563 53.7128 56.0574 52.2628 56.3351C49.3011 56.8904 46.5862 56.7361 44.2723 56.3042C42.5138 55.9649 41.0021 55.5021 39.7371 54.9776C39.0276 54.6999 38.2563 54.3606 37.485 53.9287C37.3924 53.867 37.2999 53.8361 37.2073 53.7744C37.1456 53.7436 37.1148 53.7127 37.0839 53.7127C36.5286 53.4042 36.2201 53.1882 36.2201 53.1882C36.2201 53.1882 37.701 55.6255 41.6191 56.7978C40.6935 57.9702 39.552 59.3277 39.552 59.3277C32.7339 59.1117 30.1424 54.6691 30.1424 54.6691C30.1424 44.8275 34.585 36.837 34.585 36.837C39.0276 33.5359 43.2234 33.6284 43.2234 33.6284L43.5319 33.9987C37.9786 35.5721 35.4488 38.0093 35.4488 38.0093C35.4488 38.0093 36.1275 37.6391 37.269 37.1455C40.5701 35.6955 43.1925 35.3253 44.2723 35.2019C44.4574 35.171 44.6117 35.1402 44.7968 35.1402C46.6787 34.8933 48.8075 34.8316 51.0288 35.0785C53.9596 35.4178 57.1065 36.2817 60.315 38.0093C60.315 38.0093 57.8778 35.6955 52.633 34.1221L53.065 33.6284C53.065 33.6284 57.2916 33.5359 61.7033 36.837C61.7033 36.837 66.1459 44.8275 66.1459 54.6691C66.1459 54.6382 63.5544 59.0808 56.7363 59.2968Z" fill="#4FD298"/>
<g filter="url(#filter0_b_121_580)">
<rect y="0.742432" width="95.9805" height="95.9805" rx="14" fill="#182A3E" fill-opacity="0.75"/>
<rect x="0.5" y="1.24243" width="94.9805" height="94.9805" rx="13.5" stroke="url(#paint0_linear_121_580)"/>
<rect x="0.5" y="1.24243" width="94.9805" height="94.9805" rx="13.5" stroke="url(#paint1_linear_121_580)"/>
<rect x="0.5" y="1.24243" width="94.9805" height="94.9805" rx="13.5" stroke="url(#paint2_linear_121_580)"/>
</g>
<path d="M52.7323 45.8125C51.2593 45.8125 50.0964 47.0787 50.0964 48.655C50.0964 50.2314 51.2852 51.4976 52.7323 51.4976C54.2053 51.4976 55.3681 50.2314 55.3681 48.655C55.3681 47.0787 54.1794 45.8125 52.7323 45.8125ZM43.3001 45.8125C41.8271 45.8125 40.6643 47.0787 40.6643 48.655C40.6643 50.2314 41.853 51.4976 43.3001 51.4976C44.7731 51.4976 45.936 50.2314 45.936 48.655C45.9618 47.0787 44.7731 45.8125 43.3001 45.8125Z" fill="#4FD298"/>
<path d="M65.2915 24.3118H30.6637C27.7436 24.3118 25.3662 26.6892 25.3662 29.6093V64.237C25.3662 67.1571 27.7436 69.5345 30.6637 69.5345H59.9681L58.5985 64.8055L61.9062 67.8548L65.0331 70.7233L70.6148 75.5556V29.6093C70.589 26.6892 68.2116 24.3118 65.2915 24.3118ZM55.3166 57.7766C55.3166 57.7766 54.3863 56.6654 53.6111 55.7093C56.9963 54.7532 58.2884 52.66 58.2884 52.66C57.2289 53.3577 56.2211 53.8487 55.3166 54.1846C54.0245 54.7273 52.7841 55.0633 51.5696 55.2958C49.0888 55.761 46.8147 55.6318 44.8766 55.27C43.4036 54.9857 42.1374 54.5981 41.0779 54.1588C40.4835 53.9262 39.8375 53.642 39.1915 53.2802C39.1139 53.2285 39.0364 53.2027 38.9589 53.151C38.9072 53.1251 38.8814 53.0993 38.8555 53.0993C38.3904 52.8409 38.132 52.66 38.132 52.66C38.132 52.66 39.3724 54.7015 42.6542 55.6835C41.879 56.6654 40.9228 57.8025 40.9228 57.8025C35.2119 57.6216 33.0412 53.9004 33.0412 53.9004C33.0412 45.6569 36.7624 38.9639 36.7624 38.9639C40.4835 36.1989 43.998 36.2764 43.998 36.2764L44.2564 36.5865C39.6049 37.9044 37.4859 39.9459 37.4859 39.9459C37.4859 39.9459 38.0544 39.6358 39.0106 39.2224C41.7756 38.0078 43.9722 37.6977 44.8766 37.5943C45.0317 37.5685 45.1609 37.5427 45.3159 37.5427C46.8923 37.3359 48.6753 37.2842 50.5359 37.491C52.9909 37.7752 55.6267 38.4988 58.3142 39.9459C58.3142 39.9459 56.2727 38.0078 51.8797 36.6899L52.2415 36.2764C52.2415 36.2764 55.7818 36.1989 59.4771 38.9639C59.4771 38.9639 63.1983 45.6569 63.1983 53.9004C63.1983 53.8745 61.0276 57.5957 55.3166 57.7766Z" fill="#4FD298"/>
<defs>
<filter id="filter0_b_121_580" x="-34" y="-33.2576" width="163.98" height="163.98" filterUnits="userSpaceOnUse" color-interpolation-filters="sRGB">
<feFlood flood-opacity="0" result="BackgroundImageFix"/>
<feGaussianBlur in="BackgroundImageFix" stdDeviation="17"/>
<feComposite in2="SourceAlpha" operator="in" result="effect1_backgroundBlur_121_580"/>
<feBlend mode="normal" in="SourceGraphic" in2="effect1_backgroundBlur_121_580" result="shape"/>
</filter>
<linearGradient id="paint0_linear_121_580" x1="13.7319" y1="-73.6591" x2="78.2353" y2="60.9231" gradientUnits="userSpaceOnUse">
<stop stop-color="white" stop-opacity="0.27"/>
<stop offset="1" stop-color="white" stop-opacity="0"/>
</linearGradient>
<linearGradient id="paint1_linear_121_580" x1="-130.455" y1="-134.782" x2="52.8665" y2="66.4242" gradientUnits="userSpaceOnUse">
<stop stop-color="#4FD298"/>
<stop offset="1" stop-color="#4FD298" stop-opacity="0"/>
</linearGradient>
<linearGradient id="paint2_linear_121_580" x1="95.9805" y1="157.723" x2="34.471" y2="56.7229" gradientUnits="userSpaceOnUse">
<stop stop-color="#84FFA4"/>
<stop offset="1" stop-color="#84FFA4" stop-opacity="0"/>
</linearGradient>
</defs>
</svg>
