<svg width="15" height="14" viewBox="0 0 15 14" fill="none" xmlns="http://www.w3.org/2000/svg">
<path fill-rule="evenodd" clip-rule="evenodd" d="M12.2643 7.31456C11.8752 8.33236 11.1657 9.19599 10.2427 9.77513C11.8498 10.2824 13.2787 11.2379 14.3616 12.5292C14.4339 12.6153 14.4802 12.7203 14.4949 12.8319C14.5097 12.9434 14.4922 13.0568 14.4447 13.1587C14.3972 13.2607 14.3216 13.347 14.2267 13.4074C14.1319 13.4679 14.0217 13.5 13.9092 13.5L1.23824 13.5C1.12576 13.5 1.01561 13.4678 0.920745 13.4074C0.825883 13.3469 0.750252 13.2607 0.702742 13.1587C0.655232 13.0567 0.637818 12.9433 0.652549 12.8318C0.667279 12.7203 0.713541 12.6153 0.785896 12.5292C1.86873 11.2379 3.29762 10.2824 4.90469 9.77513C3.98173 9.19599 3.27218 8.33236 2.88313 7.31456C2.49408 6.29677 2.44663 5.18004 2.74796 4.13292C3.04928 3.0858 3.68302 2.16509 4.55353 1.50975C5.42405 0.854412 6.4841 0.5 7.57372 0.5C8.66333 0.5 9.72339 0.854412 10.5939 1.50975C11.4644 2.16509 12.0982 3.0858 12.3995 4.13292C12.7008 5.18004 12.6534 6.29677 12.2643 7.31456Z" fill="#4FD298"/>
</svg>
