<svg width="22" height="19" viewBox="0 0 22 19" fill="none" xmlns="http://www.w3.org/2000/svg">
<path fill-rule="evenodd" clip-rule="evenodd" d="M-9.49784e-08 9.89005L-9.49779e-08 17.9023C-9.49779e-08 18.5024 0.486407 18.9888 1.08642 18.9888L7.97259 18.9888C8.5726 18.9888 9.05901 18.5024 9.05901 17.9023L9.05901 10.9765C9.05901 10.3765 8.5726 9.89005 7.97259 9.89005L4.42564 9.89005C4.12563 9.89005 3.87946 9.64611 3.91026 9.34769C4.16185 6.9103 6.09024 4.97276 8.51666 4.71898C8.81504 4.68777 9.05901 4.44758 9.05901 4.14757L9.05901 1.33445C9.05901 1.03444 8.81521 0.789542 8.51573 0.80733C3.76528 1.08951 -9.49784e-08 5.04794 -9.49784e-08 9.89005ZM22 4.69078L22 1.33445C22 1.03444 21.7562 0.789541 21.4567 0.807329C16.7063 1.0895 12.941 5.04785 12.941 9.88996L12.941 17.9023C12.941 18.5023 13.4274 18.9887 14.0274 18.9887L20.9136 18.9887C21.5136 18.9887 22 18.5023 22 17.9023L22 10.9768C22 10.3768 21.5136 9.89041 20.9136 9.89041L17.3667 9.89041C17.0666 9.89041 16.8205 9.64645 16.8513 9.34802C17.1215 6.73171 19.3236 4.69133 21.9996 4.69114C21.9998 4.69114 22 4.69098 22 4.69078Z" fill="#4FD298"/>
</svg>
